<svg xmlns="http://www.w3.org/2000/svg" xmlns:xlink="http://www.w3.org/1999/xlink"><symbol id="sprite">
  <symbol id="icon-vk" viewBox="0 0 28 22">
    <path d="M0.0853271 5.48988C0.0853271 4.63485 0.60043 4.17381 1.63064 4.10674L5.60048 4.13189C5.86691 4.13189 6.04453 4.25763 6.13334 4.50911C6.54187 5.76651 6.99925 6.85206 7.50547 7.76577C8.01169 8.67948 8.67333 9.7315 9.49039 10.9218C9.56144 11.0727 9.6769 11.1482 9.83675 11.1482C9.96109 11.1482 10.0588 11.0895 10.1298 10.9721L10.2098 10.6955L10.2364 6.34491C10.2364 6.04313 10.1609 5.84195 10.0099 5.74136C9.85896 5.64077 9.5792 5.56532 9.17067 5.51503C8.85096 5.46473 8.6911 5.28031 8.6911 4.96177C8.6911 4.89471 8.69998 4.84442 8.71774 4.81089C9.09074 3.72114 10.1565 3.17627 11.9149 3.17627L13.4069 3.15112C14.0819 3.15112 14.6414 3.31039 15.0855 3.62893C15.5295 3.94747 15.7516 4.45043 15.7516 5.13781V10.8464C15.8759 10.9302 15.9913 10.9721 16.0979 10.9721C16.3643 10.9721 16.5953 10.8212 16.7906 10.5195C18.7445 7.93761 19.8013 6.21079 19.9612 5.33899C19.9612 5.32223 19.979 5.28031 20.0145 5.21325C20.1388 4.96177 20.3431 4.74383 20.6273 4.55941C20.9115 4.37499 21.1601 4.24925 21.3733 4.18219C21.4443 4.14866 21.5243 4.13189 21.6131 4.13189H25.7428L26.0092 4.15704C26.3644 4.15704 26.6398 4.31631 26.8351 4.63485C26.9062 4.73544 26.955 4.84442 26.9817 4.96177C27.0083 5.07913 27.0261 5.19649 27.035 5.31384C27.0438 5.4312 27.0483 5.49826 27.0483 5.51503V5.69106C26.924 6.37844 26.6087 7.11192 26.1025 7.89151C25.5962 8.67109 24.9524 9.51355 24.1708 10.4189C23.3893 11.3242 22.9008 11.9194 22.7054 12.2044C22.5456 12.4056 22.4657 12.59 22.4657 12.7576C22.4657 12.8918 22.5367 13.0426 22.6788 13.2103L26.5687 17.8375C26.7819 18.1058 26.8884 18.3992 26.8884 18.7177C26.8884 19.1033 26.7286 19.4218 26.4089 19.6733C26.0891 19.9248 25.7072 20.0673 25.2632 20.1008L24.8103 20.126H20.7605C20.7427 20.126 20.7072 20.1302 20.6539 20.1385C20.6006 20.1469 20.5651 20.1511 20.5473 20.1511C20.1566 20.1511 19.7924 19.9919 19.455 19.6733C19.3306 19.5392 18.4958 18.55 16.9505 16.7059C16.8617 16.5885 16.7374 16.4795 16.5775 16.3789C16.5064 16.6472 16.4132 17.0328 16.2977 17.5357C16.1823 18.0387 16.0979 18.3992 16.0446 18.6171L15.9647 19.0446C15.7871 19.6314 15.4141 19.9835 14.8457 20.1008L14.4727 20.126H11.8616C10.3874 20.126 8.91756 19.4889 7.45218 18.2147C5.98681 16.9406 4.66797 15.2934 3.49566 13.2732C2.32336 11.2529 1.23099 8.90162 0.218543 6.21917C0.129733 6.00122 0.0853271 5.75813 0.0853271 5.48988ZM16.0979 12.0032C15.7249 12.0032 15.3874 11.9068 15.0855 11.714C14.7835 11.5212 14.6325 11.2571 14.6325 10.9218V5.13781C14.6325 4.8025 14.5437 4.5636 14.3661 4.42109C14.1885 4.27859 13.8776 4.20734 13.4336 4.20734L11.9149 4.25763C11.1512 4.25763 10.5739 4.38337 10.1831 4.63485C10.9647 4.98692 11.3554 5.55694 11.3554 6.34491V10.7709C11.3199 11.1901 11.1423 11.538 10.8226 11.8146C10.5028 12.0912 10.1476 12.2295 9.75682 12.2295C9.22396 12.2295 8.81543 11.9864 8.53124 11.5002C7.14579 9.52193 6.11558 7.64422 5.44062 5.8671L5.20083 5.21325L1.65728 5.18811C1.42637 5.18811 1.29759 5.20068 1.27095 5.22583C1.24431 5.25098 1.23099 5.32223 1.23099 5.43958C1.23099 5.59047 1.24875 5.74974 1.28427 5.9174L1.84378 7.32568C3.3358 10.9637 4.9566 13.8306 6.70617 15.9263C8.45575 18.0219 10.1742 19.0698 11.8616 19.0698H14.526C14.6325 19.0698 14.7125 19.0404 14.7658 18.9817C14.819 18.9231 14.8634 18.8099 14.899 18.6422L14.9523 18.3908L15.4585 16.1778C15.6006 15.876 15.7249 15.6748 15.8315 15.5742C16.0269 15.3898 16.2578 15.2976 16.5242 15.2976C16.9505 15.2976 17.3857 15.5407 17.8297 16.0269L20.0944 18.7428C20.2365 18.9608 20.3875 19.0698 20.5473 19.0698H24.9435C25.4763 19.0698 25.7428 18.944 25.7428 18.6925C25.7428 18.6087 25.7161 18.5249 25.6628 18.4411L21.7996 13.8893C21.4976 13.5372 21.3466 13.16 21.3466 12.7576C21.3466 12.3553 21.4887 11.9697 21.7729 11.6008C22.0038 11.2655 22.4523 10.7081 23.1184 9.92849C23.7845 9.1489 24.3662 8.41961 24.8635 7.74062C25.3609 7.06163 25.6895 6.4455 25.8493 5.89225L25.9293 5.56532C25.9115 5.53179 25.9026 5.47731 25.9026 5.40186C25.9026 5.32642 25.8937 5.26355 25.876 5.21325H21.693C21.4266 5.31384 21.2134 5.46473 21.0536 5.66592L20.8937 6.14373C20.4496 7.30053 19.2862 9.08603 17.4034 11.5002C17.0304 11.8355 16.5953 12.0032 16.0979 12.0032Z"/>
  </symbol>
  <symbol id="icon-instagram" viewBox="0 0 16 16">
    <path d="M7.98438 0.0625C9.31771 0.0625 10.4062 0.078125 11.25 0.109375C11.9688 0.140625 12.6094 0.265625 13.1719 0.484375C13.7135 0.692708 14.1823 0.994792 14.5781 1.39062C14.974 1.78646 15.276 2.25521 15.4844 2.79687C15.7031 3.35937 15.8281 4 15.8594 4.71875C15.8906 5.5625 15.9062 6.65104 15.9062 7.98437C15.9062 9.31771 15.8906 10.4062 15.8594 11.25C15.8281 11.9687 15.7031 12.6094 15.4844 13.1719C15.276 13.7135 14.974 14.1823 14.5781 14.5781C14.1823 14.974 13.7135 15.276 13.1719 15.4844C12.6094 15.7031 11.9688 15.8281 11.25 15.8594C10.4062 15.8906 9.31771 15.9062 7.98438 15.9062C6.65104 15.9062 5.5625 15.8906 4.71875 15.8594C4 15.8281 3.35938 15.7031 2.79688 15.4844C2.25521 15.276 1.78646 14.974 1.39062 14.5781C0.994792 14.1823 0.692708 13.7135 0.484375 13.1719C0.265625 12.6094 0.140625 11.9687 0.109375 11.25C0.078125 10.4062 0.0625 9.31771 0.0625 7.98437C0.0625 6.65104 0.078125 5.5625 0.109375 4.71875C0.140625 4 0.265625 3.35937 0.484375 2.79687C0.692708 2.25521 0.994792 1.78646 1.39062 1.39062C1.78646 0.994792 2.25521 0.692708 2.79688 0.484375C3.35938 0.265625 4 0.140625 4.71875 0.109375C5.5625 0.078125 6.65104 0.0625 7.98438 0.0625ZM7.98438 1.09375C6.59896 1.09375 5.46875 1.10937 4.59375 1.14062C4.03125 1.16146 3.51042 1.26042 3.03125 1.4375C2.28125 1.75 1.75 2.28125 1.4375 3.03125C1.26042 3.51042 1.16146 4.03125 1.14062 4.59375C1.10938 5.46875 1.09375 6.59896 1.09375 7.98437C1.09375 9.36979 1.10938 10.5 1.14062 11.375C1.16146 11.9375 1.26042 12.4583 1.4375 12.9375C1.75 13.6875 2.28125 14.2187 3.03125 14.5312C3.51042 14.7083 4.03125 14.8073 4.59375 14.8281C5.46875 14.8594 6.59896 14.875 7.98438 14.875C9.36979 14.875 10.5 14.8594 11.375 14.8281C11.9375 14.8073 12.4583 14.7083 12.9375 14.5312C13.6875 14.2187 14.2188 13.6875 14.5312 12.9375C14.7083 12.4583 14.8073 11.9375 14.8281 11.375C14.8594 10.5 14.875 9.36979 14.875 7.98437C14.875 6.59896 14.8594 5.46875 14.8281 4.59375C14.8073 4.03125 14.7083 3.51042 14.5312 3.03125C14.2188 2.28125 13.6875 1.75 12.9375 1.4375C12.4583 1.26042 11.9375 1.16146 11.375 1.14062C10.5 1.10937 9.36979 1.09375 7.98438 1.09375ZM7.98438 11.1562C8.85938 11.1562 9.60677 10.8464 10.2266 10.2266C10.8464 9.60677 11.1562 8.85937 11.1562 7.98437C11.1562 7.10937 10.8464 6.36198 10.2266 5.74219C9.60677 5.1224 8.85938 4.8125 7.98438 4.8125C7.10938 4.8125 6.36198 5.1224 5.74219 5.74219C5.1224 6.36198 4.8125 7.10937 4.8125 7.98437C4.8125 8.85937 5.1224 9.60677 5.74219 10.2266C6.36198 10.8464 7.10938 11.1562 7.98438 11.1562ZM7.98438 3.92187C9.10938 3.92187 10.0677 4.31771 10.8594 5.10937C11.651 5.90104 12.0469 6.85937 12.0469 7.98437C12.0469 9.10937 11.651 10.0677 10.8594 10.8594C10.0677 11.651 9.10938 12.0469 7.98438 12.0469C6.85938 12.0469 5.90104 11.651 5.10938 10.8594C4.31771 10.0677 3.92188 9.10937 3.92188 7.98437C3.92188 6.85937 4.31771 5.90104 5.10938 5.10937C5.90104 4.31771 6.85938 3.92187 7.98438 3.92187ZM13.1719 3.76562C13.1719 4.02604 13.0781 4.2474 12.8906 4.42969C12.7031 4.61198 12.474 4.70312 12.2031 4.70312C11.9427 4.70312 11.7214 4.61198 11.5391 4.42969C11.3568 4.2474 11.2656 4.02604 11.2656 3.76562C11.2656 3.49479 11.3568 3.26562 11.5391 3.07812C11.7214 2.89062 11.9427 2.79687 12.2031 2.79687C12.4635 2.79687 12.6901 2.89323 12.8828 3.08594C13.0755 3.27865 13.1719 3.50521 13.1719 3.76562Z"/>
  </symbol>
  <symbol id="icon-facebook" viewBox="0 0 22 22">
    <path d="M16.5 1.83325H13.75C12.5344 1.83325 11.3686 2.30674 10.5091 3.14957C9.64956 3.99239 9.16667 5.1355 9.16667 6.32743V9.02394H6.41667V12.6193H9.16667V19.81H12.8333V12.6193H15.5833L16.5 9.02394H12.8333V6.32743C12.8333 6.08905 12.9299 5.86042 13.1018 5.69186C13.2737 5.52329 13.5069 5.4286 13.75 5.4286H16.5V1.83325Z"/>
  </symbol>
  <symbol id="icon-youtube" viewBox="0 0 24 19">
    <g><path d="m15.85 8.8-5.24-3.5a.65.65 0 0 0-1.01.55v6.98a.65.65 0 0 0 1.01.54l5.24-3.49a.65.65 0 0 0 0-1.09Zm-4.94 2.8V7.08l3.4 2.27-3.4 2.27Zm12.48-8.56a2.4 2.4 0 0 0-1.45-1.63C18.22-.02 12.25 0 12 0S5.78-.02 2.06 1.4A2.4 2.4 0 0 0 .61 3.05 25.32 25.32 0 0 0 0 9.34c0 3.26.33 5.22.61 6.3a2.4 2.4 0 0 0 1.45 1.63c3.72 1.43 9.69 1.4 9.94 1.4h.08c.75 0 6.31-.04 9.86-1.4a2.4 2.4 0 0 0 1.45-1.64c.28-1.07.61-3.03.61-6.3 0-3.25-.33-5.22-.61-6.29Zm-1.27 12.27a1.1 1.1 0 0 1-.65.74c-3.5 1.34-9.4 1.32-9.47 1.32-.07 0-5.98.02-9.47-1.32a1.09 1.09 0 0 1-.65-.74c-.27-1-.57-2.85-.57-5.97 0-3.12.3-4.97.57-5.97a1.1 1.1 0 0 1 .65-.74C6.03 1.29 11.93 1.3 12 1.3c.07 0 5.98-.02 9.47 1.32a1.1 1.1 0 0 1 .65.74c.27 1 .57 2.85.57 5.97 0 3.12-.3 4.96-.57 5.97Z"/></g>
  </symbol>
  <symbol id="icon-telegram" viewBox="0 0 20 18">
    <g><path d="M19.46.15c.18.15.27.38.23.61l-2.63 15.76a.66.66 0 0 1-1.01.44l-7.88-5.25a.66.66 0 0 1-.15-.96l2.61-3.26-4.36 2.9a.66.66 0 0 1-.65.05L.36 7.8a.66.66 0 0 1 .08-1.2L18.82.03a.66.66 0 0 1 .64.11ZM2.33 7.32 5.86 9.1l7.56-5.04a.66.66 0 0 1 .88.96l-4.8 6 6.43 4.3 2.28-13.66L2.33 7.32Z"/></g>
  </symbol>
  <symbol id="icon-academy" viewBox="0 0 27 34">
    <path d="M13.6426 0.0157537L13.5 0L0 1.40733V26.0129L13.5 34L27 26.0129V1.40733L13.6426 0.0157537ZM25.2344 25.0151L13.5 31.9573L1.76561 25.0151V14.9293L13.4507 21.8451L13.4701 23.0984L5.45351 18.3548L5.44295 19.5801L13.4894 24.3885L13.5088 25.675L5.46408 20.9174L5.45351 22.1427L13.5 26.9511L21.6239 22.1182V20.8929V16.909L25.2432 14.7595L25.2344 25.0151ZM25.2344 13.4519L22.0147 15.3319L20.5325 16.2071L13.4666 12.0201L13.456 13.2454L19.4957 16.818L19.4429 16.8495L19.3126 16.9247L18.4536 17.4166L13.4666 14.4689L13.456 15.6942L17.3921 18.0222L16.4591 18.6314L16.438 18.6436L13.4666 16.902L13.456 18.1273L15.4029 19.2615L13.4155 20.4483L1.7973 13.5762L13.4349 6.61831L25.2344 13.4519ZM25.2344 12.2266L13.4401 5.31075L1.76561 12.2196V2.9897L13.5 1.76442L25.2344 2.9897V12.2266Z"/>
  </symbol>
  <symbol id="icon-phone" viewBox="0 0 20 20">
    <path d="M17.9 9.4H9.40002V10.6H17.9L15.8 12.7L16.7 13.6L19.8 10.5C19.8974 10.3702 19.95 10.2123 19.95 10.05C19.95 9.88772 19.8974 9.72982 19.8 9.6L16.7 6.5L15.8 7.4L17.9 9.4Z"/>
    <path d="M8.09995 19.4V13.2C8.0884 13.0447 8.02148 12.8987 7.91136 12.7886C7.80125 12.6785 7.65525 12.6116 7.49995 12.6H3.09995C3.1051 12.9167 3.23318 13.2189 3.45712 13.4428C3.68106 13.6668 3.9833 13.7949 4.29995 13.8H6.79995V18.8H3.09995C2.86319 18.8149 2.62585 18.7825 2.4017 18.7048C2.17756 18.6271 1.97109 18.5057 1.7943 18.3475C1.61751 18.1893 1.47393 17.9976 1.37189 17.7834C1.26986 17.5693 1.21142 17.337 1.19995 17.1V3.10001C1.19175 2.6373 1.3651 2.18977 1.68286 1.85331C2.00062 1.51686 2.43752 1.31824 2.89995 1.30001H6.79995V6.30001H4.39995C4.0833 6.30516 3.78106 6.43324 3.55712 6.65718C3.33318 6.88112 3.2051 7.18336 3.19995 7.50001H7.59995C7.75525 7.48846 7.90125 7.42154 8.01136 7.31142C8.12148 7.2013 8.1884 7.05531 8.19995 6.90001V0.600012C8.15226 0.443872 8.06111 0.304534 7.93715 0.198285C7.81319 0.0920352 7.66155 0.0232649 7.49995 1.23734e-05H3.09995C2.70593 -0.0133408 2.31315 0.0511002 1.94405 0.189651C1.57495 0.328202 1.23678 0.538145 0.948872 0.807477C0.660965 1.07681 0.428969 1.40025 0.266146 1.7593C0.103324 2.11835 0.0128689 2.50598 -4.64045e-05 2.90001V16.8C-0.0290254 17.1977 0.0245894 17.597 0.157426 17.9729C0.290263 18.3489 0.499448 18.6932 0.771825 18.9844C1.0442 19.2756 1.37388 19.5072 1.74012 19.6648C2.10637 19.8224 2.50126 19.9024 2.89995 19.9H7.49995C7.57344 19.915 7.64937 19.9133 7.7221 19.895C7.79484 19.8767 7.86253 19.8423 7.92015 19.7942C7.97777 19.7462 8.02385 19.6859 8.05497 19.6176C8.0861 19.5494 8.10147 19.475 8.09995 19.4Z"/>
  </symbol>
  <symbol id="icon-email" viewBox="0 0 19 14" fill="none">
    <line x1="1.1793" y1="6" x2="1.1793" y2="14" stroke-width="1.3"/>
    <line x1="18.1793" y1="6" x2="18.1793" y2="14" stroke-width="1.3"/>
    <line x1="0.529297" y1="13.35" x2="18.5293" y2="13.35" stroke-width="1.3"/>
    <line x1="0.529297" y1="1.35" x2="18.5293" y2="1.35" stroke-width="1.3"/>
    <path d="M17.8793 3.1821L9.52932 9.67654L1.1793 3.18209V1.65H4.0293L9.52932 1.65H14.5293H17.8793V3.1821Z" stroke-width="1.3"/>
  </symbol>
</symbol></svg>